<svg width="27" height="25" viewBox="0 0 27 25" fill="none" xmlns="http://www.w3.org/2000/svg">
<path d="M21.5462 23.6467H21.4342C20.8267 23.6467 20.3164 23.1484 20.2723 22.5125C20.228 21.8457 20.7151 21.2651 21.3584 21.2213C21.3837 21.2196 21.4101 21.2188 21.4361 21.2188C22.0514 21.2188 22.5668 21.7073 22.6125 22.3323C22.6242 22.5801 22.5838 22.9333 22.3291 23.225L22.3232 23.2318L22.3174 23.2386C22.1212 23.4716 21.8552 23.6121 21.5462 23.6467ZM7.85231 23.6403C7.20355 23.6403 6.67578 23.0989 6.67578 22.4334C6.67578 21.7684 7.20355 21.2273 7.85231 21.2273C8.50108 21.2273 9.02885 21.7684 9.02885 22.4334C9.02885 23.0989 8.50108 23.6403 7.85231 23.6403Z" fill="white"/>
<path d="M21.4691 22.6486C21.514 22.6372 21.5353 22.6163 21.5529 22.5954C21.5606 22.5862 21.5684 22.5771 21.5763 22.5681C21.6127 22.5265 21.616 22.4382 21.6151 22.3935C21.602 22.2877 21.5115 22.2151 21.4344 22.2151C21.4307 22.2151 21.4269 22.2152 21.4245 22.2153C21.3466 22.2207 21.2591 22.3241 21.2656 22.4454C21.2749 22.5619 21.3609 22.6486 21.4325 22.6486H21.4691ZM7.85061 22.6422C7.94952 22.6422 8.02992 22.5481 8.02992 22.4325C8.02992 22.3173 7.94952 22.2236 7.85061 22.2236C7.75177 22.2236 7.6713 22.3173 7.6713 22.4325C7.6713 22.5481 7.75177 22.6422 7.85061 22.6422ZM21.5922 24.643C21.5446 24.643 21.4809 24.643 21.4325 24.643C20.2981 24.643 19.3557 23.7338 19.2758 22.5805C19.1959 21.3788 20.0907 20.3072 21.2889 20.2255C21.3376 20.2222 21.3862 20.2206 21.4344 20.2206C22.57 20.2206 23.5287 21.119 23.6062 22.2718C23.6376 22.8732 23.4617 23.4413 23.0785 23.8801C22.6952 24.3351 22.1675 24.5946 21.5922 24.643ZM7.85061 24.6367C6.64973 24.6367 5.67686 23.6504 5.67686 22.4325C5.67686 21.2154 6.64973 20.2291 7.85061 20.2291C9.05143 20.2291 10.0244 21.2154 10.0244 22.4325C10.0244 23.6504 9.05143 24.6367 7.85061 24.6367ZM20.7934 17.7897H8.76159C8.32987 17.7897 7.94666 17.4971 7.83442 17.0753L3.91955 2.68561H1.1714C0.64455 2.68561 0.212891 2.24774 0.212891 1.71103C0.212891 1.17517 0.64455 0.736328 1.1714 0.736328H4.63934C5.07015 0.736328 5.45336 1.02885 5.56553 1.45162L9.48047 15.8404H20.1544L23.7014 7.55815H11.8777C11.35 7.55815 10.9182 7.1193 10.9182 6.58357C10.9182 6.0477 11.35 5.60886 11.8777 5.60886H25.1714C25.491 5.60886 25.7952 5.77125 25.9702 6.0477C26.1461 6.32318 26.1785 6.66427 26.0501 6.97298L21.6721 17.2045C21.5123 17.5618 21.1766 17.7897 20.7934 17.7897Z" fill="white"/>
<path d="M21.4691 22.6486C21.514 22.6372 21.5353 22.6163 21.5529 22.5954C21.5606 22.5862 21.5684 22.5771 21.5763 22.5681C21.6127 22.5265 21.616 22.4382 21.6151 22.3935C21.602 22.2877 21.5115 22.2151 21.4344 22.2151C21.4307 22.2151 21.4269 22.2152 21.4245 22.2153C21.3466 22.2207 21.2591 22.3241 21.2656 22.4454C21.2749 22.5619 21.3609 22.6486 21.4325 22.6486H21.4691ZM7.85061 22.6422C7.94952 22.6422 8.02992 22.5481 8.02992 22.4325C8.02992 22.3173 7.94952 22.2236 7.85061 22.2236C7.75177 22.2236 7.6713 22.3173 7.6713 22.4325C7.6713 22.5481 7.75177 22.6422 7.85061 22.6422ZM21.5922 24.643C21.5446 24.643 21.4809 24.643 21.4325 24.643C20.2981 24.643 19.3557 23.7338 19.2758 22.5805C19.1959 21.3788 20.0907 20.3072 21.2889 20.2255C21.3376 20.2222 21.3862 20.2206 21.4344 20.2206C22.57 20.2206 23.5287 21.119 23.6062 22.2718C23.6376 22.8732 23.4617 23.4413 23.0785 23.8801C22.6952 24.3351 22.1675 24.5946 21.5922 24.643ZM7.85061 24.6367C6.64973 24.6367 5.67686 23.6504 5.67686 22.4325C5.67686 21.2154 6.64973 20.2291 7.85061 20.2291C9.05143 20.2291 10.0244 21.2154 10.0244 22.4325C10.0244 23.6504 9.05143 24.6367 7.85061 24.6367ZM20.7934 17.7897H8.76159C8.32987 17.7897 7.94666 17.4971 7.83442 17.0753L3.91955 2.68561H1.1714C0.64455 2.68561 0.212891 2.24774 0.212891 1.71103C0.212891 1.17517 0.64455 0.736328 1.1714 0.736328H4.63934C5.07015 0.736328 5.45336 1.02885 5.56553 1.45162L9.48047 15.8404H20.1544L23.7014 7.55815H11.8777C11.35 7.55815 10.9182 7.1193 10.9182 6.58357C10.9182 6.0477 11.35 5.60886 11.8777 5.60886H25.1714C25.491 5.60886 25.7952 5.77125 25.9702 6.0477C26.1461 6.32318 26.1785 6.66427 26.0501 6.97298L21.6721 17.2045C21.5123 17.5618 21.1766 17.7897 20.7934 17.7897Z" fill="white"/>
</svg>
